<svg xmlns="http://www.w3.org/2000/svg" className="qodef-process-wave-line" x="0px" y="0px" viewBox="0 0 1920 240" enable-background="new 0 0 1920 240">
<g opacity="0.75">
<path className="qodef-process-wave" fill="none" stroke="#939597" stroke-width="0.5" stroke-miterlimit="10" d="M-35.786,245&#10;        C319.124,184.158,738.255-35.548,929.23,13.464s447.862,185.905,682.778,180.835c234.916-5.07,381.95-138.584,449.552-143.654" style="stroke-dasharray: 2185px; stroke-dashoffset: 2185px; transition-delay: 0ms;"/>
<path className="qodef-process-wave" fill="none" stroke="#939597" stroke-width="0.5" stroke-miterlimit="10" d="M-45.926,140.217&#10;        c277.167,42.251,608.416-62.532,642.217-69.292c33.801-6.76,165.624-62.532,294.068-55.772s331.249,72.672,375.19,84.502&#10;        s285.618,74.362,392.091,52.391C1747.276,133.551,1846.493,1.265,1920-43.136c13.808-8.341,26.708-13.58,38.468-14.382" style="stroke-dasharray: 2106px; stroke-dashoffset: 2106px; transition-delay: 300ms;"/>
<path className="qodef-process-wave" fill="none" stroke="#939597" stroke-width="0.5" stroke-miterlimit="10" d="M-20.575,158.808&#10;        c152.104,10.14,468.143-30.421,586.446-65.912S1028,4.1,1167.527,48.955c72.973,23.459,260.267,141.964,338.009,148.724&#10;        c77.742,6.76,361.67,8.45,424.202-59.152" style="stroke-dasharray: 2007px; stroke-dashoffset: 2007px; transition-delay: 600ms;"/>
</g>
</svg>